PathFileType	4	(X/Y/Z)	F:\MotionCapture\20160217\3\Generated_files\EMG_test06-Dynamic.trc
DataRate	CameraRate	NumFrames	NumMarkers	Units	OrigDataRate	OrigDataStartFrame	OrigNumFrames
120.00	120.00	        8	39	mm	120.00	38	        99
Frame#	Time	Top.Head			Front.Head			Rear.Head			R.Shoulder			R.Offset			R.Elbow			R.Wrist			L.Shoulder			L.Elbow			L.Wrist			R.ASIS			L.ASIS			V.Sacral			R.Thigh			R.Knee			R.Shank			R.Ankle			R.Heel			R.Toe			L.Thigh			L.Knee			L.Shank			L.Ankle			L.Heel			L.Toe			R1			R2			R3			R4			R5			R6			R7			L1			L2			L3			L4			L5			L6			L7			V_Mid_ASIS			V_Pelvis_Origin			V_R.Hip_JC			V_L.Hip_JC			V_R.Knee_JC			V_L.Knee_JC			V_R.Ankle_JC			V_L.Ankle_JC			V_Mid_Hip			V_Mid_Shoulder			V_R.Hand			V_L.Hand			V_R.Toe_Offset_Static			V_L.Toe_Offset_Static			V_R.Toe_Offset			V_L.Toe_Offset			
		X1	Y1	Z1	X2	Y2	Z2	X3	Y3	Z3	X4	Y4	Z4	X5	Y5	Z5	X6	Y6	Z6	X7	Y7	Z7	X8	Y8	Z8	X9	Y9	Z9	X10	Y10	Z10	X11	Y11	Z11	X12	Y12	Z12	X13	Y13	Z13	X14	Y14	Z14	X15	Y15	Z15	X16	Y16	Z16	X17	Y17	Z17	X18	Y18	Z18	X19	Y19	Z19	X20	Y20	Z20	X21	Y21	Z21	X22	Y22	Z22	X23	Y23	Z23	X24	Y24	Z24	X25	Y25	Z25	X26	Y26	Z26	X27	Y27	Z27	X28	Y28	Z28	X29	Y29	Z29	X30	Y30	Z30	X31	Y31	Z31	X32	Y32	Z32	X33	Y33	Z33	X34	Y34	Z34	X35	Y35	Z35	X36	Y36	Z36	X37	Y37	Z37	X38	Y38	Z38	X39	Y39	Z39	

38	0.308	2367.19873	41.34980	1719.53320	2276.03247	45.11969	1611.71375	2487.81299	25.29453	1677.57996	2476.05225	225.96902	1442.03235	2625.80859	-29.17291	1290.94678	2523.34741	332.26581	1121.18860	2421.46973	344.96762	878.84106	2474.50244	-182.58557	1428.36621	2540.23608	-275.21378	1112.49854	2508.58887	-295.80484	859.24225	2428.64893	189.93050	955.27325	2424.76855	-101.34903	950.76202	2651.20654	39.94050	961.24884	2389.36328	187.02626	586.08246	2454.09961	234.34152	482.24908	2455.76025	188.21503	241.25125	2515.46851	269.08798	81.20836	2579.02979	207.69241	49.27948	2369.18872	258.49786	47.48550	2390.51367	-41.67605	631.29236	2480.09399	-85.74119	470.98264	2467.30518	-3.99933	335.34534	2535.41797	-51.84340	65.41965	2597.34180	6.87920	49.33189	2393.95459	-53.13205	47.19085	2319.47803	240.61333	43.51807	2363.63477	223.52345	54.73499	2459.32178	185.18593	62.35476	2531.66040	180.27644	47.14843	2552.12134	252.72108	51.52853	2476.09351	284.93250	43.11773	2409.01514	302.38828	42.73211	2347.16553	-29.49288	40.75684	2381.54028	-14.67723	50.86583	2473.74512	33.06981	54.88513	2557.43384	36.98038	50.89986	2573.32837	-34.48747	48.23562	2500.87158	-65.75485	40.89789	2437.28662	-83.20193	44.28315																																																	2252.43359	269.37878	782.62042	2805.82031	133.90282	351.25150	
39	0.317	2366.57715	40.08381	1719.18835	2277.25854	44.39379	1611.22034	2487.24219	24.74463	1677.51306	2475.48462	224.65450	1442.32788	2625.99438	-29.50934	1291.07813	2520.52563	331.80670	1120.92456	2415.27148	343.66751	880.69763	2475.44629	-183.92976	1428.37085	2541.19409	-275.55777	1112.67358	2509.64160	-296.75061	858.98511	2427.38354	188.87383	955.49982	2425.70142	-101.82445	950.86829	2651.56982	39.60931	961.24011	2389.49707	186.61650	586.00153	2454.17456	234.23305	482.32562	2455.80542	188.14148	241.28979	2515.58936	269.16580	81.16232	2579.00586	207.72223	49.25142	2369.24487	258.60117	47.60646	2390.50879	-42.17002	631.20435	2480.60449	-86.03126	471.08957	2467.07593	-4.01235	335.30719	2535.40210	-51.76911	65.26206	2597.31494	6.92179	49.29759	2393.97070	-53.06179	47.20878	2319.46411	240.65730	43.38002	2363.68652	223.53668	54.70877	2459.35107	185.19688	62.36345	2531.70142	180.34196	47.25178	2552.17554	252.76573	51.55449	2476.05322	284.91852	42.99686	2409.06860	302.40494	42.66594	2347.28247	-29.70044	40.79321	2381.76538	-14.89178	50.92468	2473.73193	33.02213	54.94307	2557.46533	37.00986	50.91629	2573.37524	-34.47726	48.22044	2500.87744	-65.77812	40.82635	2437.30176	-83.29953	44.32139																																																	2805.64746	133.66803	351.17474	3062.37939	162.66156	-146.29491	2989.79102	138.52206	-144.86096	
40	0.325	2366.18750	39.53547	1718.96033	2277.41626	44.03922	1610.88306	2486.89917	24.07407	1677.45703	2474.80908	223.37758	1442.55652	2626.30664	-29.99202	1291.18494	2517.67651	330.95950	1120.84692	2408.67334	342.52762	881.97876	2476.02612	-184.85271	1428.34583	2542.21021	-275.70834	1112.38367	2510.41284	-297.22803	858.84235	2429.32935	188.57320	955.31818	2425.91455	-102.29756	950.79486	2651.91455	39.33198	961.21832	2389.72437	186.18768	585.89441	2454.12939	234.04799	482.30127	2455.84082	188.08322	241.35303	2515.63135	269.21432	81.23580	2579.07129	207.70876	49.26309	2369.26465	258.59335	47.56426	2390.97388	-42.59430	630.97852	2481.03003	-86.62345	471.23706	2467.46655	-4.22728	335.30551	2535.48608	-51.83699	65.29545	2597.34424	6.91947	49.29861	2394.00854	-53.18091	47.08056	2319.48706	240.66414	43.44256	2363.72778	223.55431	54.70150	2459.31616	185.31073	62.46075	2531.71777	180.38849	47.22563	2552.15039	252.80789	51.50105	2475.91235	284.98502	42.92781	2409.07544	302.39804	42.73326	2347.21460	-29.51224	40.74821	2381.38086	-14.77004	50.90369	2473.71411	32.97184	54.85772	2557.43726	36.96638	50.84501	2573.41699	-34.48176	48.22532	2500.80347	-65.69264	40.75237	2437.21167	-83.87167	44.25139																																																	1658.92334	-13.03031	1509.54993	2805.21240	133.36673	350.72464	3062.71680	162.64903	-146.10867	
41	0.333	2365.76392	39.00280	1718.65332	2276.94189	43.10155	1610.44568	2486.41284	23.31542	1677.39990	2474.14990	222.62134	1442.68420	2626.52173	-30.36679	1291.16345	2514.77661	330.20834	1120.33667	2402.16577	341.42148	883.35669	2476.19263	-185.39996	1428.16211	2543.24854	-276.02951	1112.37842	2511.22339	-297.80475	858.82843	2429.27100	188.04816	955.28827	2426.70483	-102.96709	950.60852	2652.51465	38.83327	961.29712	2389.96704	185.45441	585.74860	2453.86670	233.63870	482.45721	2455.83057	188.07777	241.43402	2515.71851	269.19562	81.36559	2579.03735	207.71359	49.27265	2369.24316	259.19617	48.12605	2388.30786	-43.67762	631.27496	2481.02856	-86.74015	471.22089	2467.84985	-4.54378	335.23346	2535.50391	-51.91138	65.35759	2597.34521	6.92312	49.28902	2394.07642	-53.18578	47.17772	2319.58423	240.54520	43.47754	2363.74805	223.58563	54.75587	2459.29834	185.22432	62.55507	2531.62695	181.48500	46.59574	2552.24341	252.84500	51.68608	2476.06323	285.01901	42.97694	2409.10132	302.39777	42.72531	2347.19800	-29.59116	40.74738	2381.69995	-14.89260	50.87690	2473.75562	33.04008	54.97567	2557.46460	36.97843	50.92085	2573.38403	-34.46392	48.14750	2500.79224	-65.70555	40.68657	2437.29468	-83.86884	44.27382																																																	1658.71875	-14.08548	1509.33679	3062.30957	162.75578	-146.32672	
42	0.342	2365.08862	37.92769	1718.53430	2275.06689	40.60118	1610.26660	2486.07959	22.83822	1677.35352	2473.53516	221.70479	1443.06470	2626.74316	-30.67372	1291.14319	2512.35986	329.80414	1120.57202	2396.66870	339.68881	884.95984	2476.40747	-186.09067	1427.95886	2544.19629	-276.37302	1112.12170	2511.74463	-298.14676	858.75861	2429.28418	187.06058	955.00598	2427.28198	-103.43738	950.53717	2652.93604	38.41949	961.42084	2389.75171	185.16197	585.74554	2453.65698	233.39771	482.48837	2455.77710	188.09023	241.50218	2515.67529	269.28381	81.30164	2579.01392	207.70761	49.32759	2369.22266	259.15527	48.19202	2388.30835	-44.17939	631.46899	2481.31079	-87.15449	471.35330	2468.94336	-5.26835	334.96942	2535.48511	-51.86364	65.30224	2597.35913	6.94710	49.31646	2394.11768	-53.27914	47.15746	2319.51465	240.69189	43.41208	2363.72119	223.55716	54.82436	2459.31372	185.22894	62.66208	2531.64258	181.38026	46.72645	2552.19263	252.82784	51.58927	2476.03149	284.99234	42.98887	2409.02026	302.39032	42.70596	2347.19214	-29.55868	40.79351	2381.48706	-14.90020	50.97552	2473.74512	32.92575	55.06782	2557.49683	36.98056	50.93415	2573.38696	-34.49908	48.12000	2500.83813	-65.77751	40.78158	2437.22705	-83.90646	44.22128																																																	1659.87598	-14.60714	1508.92957	2804.79712	133.09711	350.23029	3062.63574	162.77219	-146.39836	
43	0.350	2364.47876	36.47452	1718.19580	2274.96997	39.05389	1609.90186	2485.75732	22.04386	1677.29089	2473.07153	220.97047	1443.43225	2626.95068	-31.00529	1291.01782	2509.85693	328.89145	1120.71033	2389.56934	338.16006	886.02368	2476.84326	-186.96761	1427.76501	2545.82471	-277.61374	1111.92053	2512.04492	-298.65756	858.53748	2429.31152	186.46066	954.84821	2427.74585	-103.97189	950.43756	2653.21313	38.19833	961.43304	2389.62207	185.03403	585.79382	2453.62280	233.27760	482.49265	2455.45117	187.86978	241.47987	2515.68823	269.10318	81.40228	2579.03125	207.67557	49.36040	2369.24707	258.57813	47.54572	2388.82520	-44.72082	631.49091	2481.54468	-87.51194	471.05719	2469.01489	-5.46338	334.94604	2535.53516	-51.84751	65.23692	2597.35498	6.93857	49.29404	2394.15845	-53.36742	47.09586	2319.59766	240.56834	43.49453	2363.69287	223.56267	54.77607	2459.29956	185.34308	62.52634	2531.78271	181.04559	46.88526	2552.21704	252.80302	51.64133	2476.03735	285.11215	43.02155	2409.02441	302.35626	42.70541	2347.22925	-29.57150	40.74410	2381.43286	-14.89866	50.95597	2473.64282	32.90178	54.99581	2557.48340	36.91529	50.90200	2573.46655	-34.47633	48.11510	2500.81689	-65.68426	40.68266	2437.14941	-83.99194	44.10309																																																	1660.66919	-14.77685	1509.02747	3063.18604	162.82364	-146.39255	3099.79956	126.25790	-156.70776	
44	0.358	2364.13770	35.67021	1717.90503	2276.34253	39.19545	1609.40771	2485.69434	21.48461	1677.19861	2472.35034	220.00845	1443.65295	2627.18750	-31.57694	1290.97021	2507.16040	328.25522	1120.30139	2383.50415	337.37393	888.18951	2477.80029	-188.23413	1427.64282	2546.58643	-278.16614	1111.45593	2511.74438	-298.77216	858.31079	2429.53687	186.20506	954.74768	2428.02954	-104.56238	950.36005	2653.40894	37.84290	961.45264	2389.47534	184.90358	585.75562	2453.44458	233.01309	482.47293	2455.43164	187.71367	241.55865	2515.77783	269.14563	81.57410	2579.02539	207.59174	49.42514	2369.28320	258.56924	47.56985	2389.34009	-45.41068	631.71246	2481.70410	-87.66148	470.99515	2468.71680	-5.75635	335.10635	2535.55176	-51.88737	65.23791	2597.32910	6.95225	49.28790	2394.09448	-53.30392	47.10439	2319.60522	240.61227	43.43440	2363.74097	223.58157	54.92813	2459.29712	185.23354	62.59128	2531.65698	181.35735	46.82861	2552.23584	252.83963	51.71733	2476.05859	285.04309	43.09207	2408.99292	302.33774	42.73188	2347.18628	-29.62274	40.70937	2381.40210	-14.91654	50.97374	2473.73340	32.93050	55.06164	2557.48389	36.91362	50.90795	2573.49585	-34.48314	48.10457	2500.87964	-65.74613	40.65756	2437.17773	-84.00819	44.08627																																																	1660.95459	-15.41973	1508.99292	3063.18115	162.60518	-146.32056	
45	0.367	2364.09937	34.76649	1717.80688	2275.87158	38.13907	1608.89404	2485.42798	20.96127	1677.22778	2472.26587	218.77234	1443.76074	2627.36987	-31.86576	1290.86182	2504.46997	327.56204	1120.14880	2377.40259	335.51578	890.51263	2478.73315	-189.27554	1427.22961	2547.02344	-278.12097	1111.01172	2511.16748	-298.69696	857.95276	2429.38428	185.81081	954.61176	2428.22900	-105.24326	950.60773	2653.58911	37.54543	961.48737	2388.75562	184.37698	585.91077	2453.23901	232.80473	482.55997	2455.33643	187.50955	241.52267	2515.63818	269.02432	81.60809	2579.02393	207.54900	49.47617	2369.31616	258.69571	47.80119	2389.96826	-46.27835	631.51666	2481.71411	-87.88934	470.89462	2468.80981	-5.97227	335.16959	2535.56934	-51.88416	65.24809	2597.36060	6.93186	49.25874	2394.16284	-53.32578	47.11654	2319.54297	240.83621	43.49873	2363.73145	223.60594	54.88050	2459.27441	185.13177	62.83788	2531.57617	181.42249	46.77619	2552.26343	252.76773	51.81244	2476.07935	285.00653	43.09184	2408.89746	302.25644	42.85307	2347.23218	-29.66163	40.73993	2381.44482	-14.94021	51.01686	2473.74976	32.92633	55.21177	2557.43774	36.89841	50.89026	2573.54956	-34.47410	48.05428	2500.89185	-65.75584	40.66233	2437.61597	-84.06480	44.66513																																																	1661.01501	-16.66071	1508.95142	3015.41821	167.37666	787.02551	2290.51440	-37.71236	81.25652	
